<?xml version="1.0" encoding="UTF-8" standalone="no"?>
<!DOCTYPE svg PUBLIC "-//W3C//DTD SVG 1.1//EN"
 "http://www.w3.org/Graphics/SVG/1.1/DTD/svg11.dtd">
<!-- Generated by graphviz version 2.28.0 (20110507.0327)
 -->
<!-- Title: G Pages: 1 -->
<svg width="940pt" height="206pt"
 viewBox="0.00 0.00 940.00 206.00" xmlns="http://www.w3.org/2000/svg" xmlns:xlink="http://www.w3.org/1999/xlink">
<g id="graph1" class="graph" transform="scale(1 1) rotate(0) translate(4 202)">
<title>G</title>
<polygon fill="white" stroke="white" points="-4,5 -4,-202 937,-202 937,5 -4,5"/>
<!-- 0 -->
<!-- 0 cents -->
<g id="node4" class="node"><title>0 cents</title>
<ellipse fill="none" stroke="black" cx="129" cy="-127" rx="36.2938" ry="36.2938"/>
<text text-anchor="middle" x="129" y="-123.3" font-family="Times New Roman,serif" font-size="14.00">0 cents</text>
</g>
<!-- 0&#45;&gt;0 cents -->
<g id="edge2" class="edge"><title>0&#45;&gt;0 cents</title>
<path fill="none" stroke="black" d="M54.0128,-127C62.5975,-127 72.4185,-127 82.0388,-127"/>
<polygon fill="black" stroke="black" points="82.3312,-130.5 92.3311,-127 82.3311,-123.5 82.3312,-130.5"/>
</g>
<!-- 25 cents -->
<g id="node2" class="node"><title>25 cents</title>
<ellipse fill="none" stroke="black" cx="887" cy="-114" rx="40.8976" ry="40.8976"/>
<ellipse fill="none" stroke="black" cx="887" cy="-114" rx="44.8928" ry="44.8928"/>
<text text-anchor="middle" x="887" y="-110.3" font-family="Times New Roman,serif" font-size="14.00">25 cents</text>
</g>
<!-- 0 cents&#45;&gt;25 cents -->
<g id="edge22" class="edge"><title>0 cents&#45;&gt;25 cents</title>
<path fill="none" stroke="black" d="M159.957,-146.429C187.812,-162.603 231.057,-183 272,-183 272,-183 272,-183 732,-183 771.427,-183 811.96,-163.931 841.54,-145.843"/>
<polygon fill="black" stroke="black" points="843.764,-148.578 850.355,-140.283 840.03,-142.657 843.764,-148.578"/>
<text text-anchor="middle" x="500" y="-186.8" font-family="Times New Roman,serif" font-size="14.00">quarter</text>
</g>
<!-- 5 cents -->
<g id="node6" class="node"><title>5 cents</title>
<ellipse fill="none" stroke="black" cx="273" cy="-55" rx="36.2938" ry="36.2938"/>
<text text-anchor="middle" x="273" y="-51.3" font-family="Times New Roman,serif" font-size="14.00">5 cents</text>
</g>
<!-- 0 cents&#45;&gt;5 cents -->
<g id="edge4" class="edge"><title>0 cents&#45;&gt;5 cents</title>
<path fill="none" stroke="black" d="M161.303,-109.928C168.715,-105.957 176.614,-101.786 184,-98 199.02,-90.3009 215.621,-82.1079 230.321,-74.9613"/>
<polygon fill="black" stroke="black" points="232.196,-77.9418 239.669,-70.4318 229.144,-71.6422 232.196,-77.9418"/>
<text text-anchor="middle" x="201" y="-101.8" font-family="Times New Roman,serif" font-size="14.00">nickel</text>
</g>
<!-- 10 cents -->
<g id="node8" class="node"><title>10 cents</title>
<ellipse fill="none" stroke="black" cx="421" cy="-114" rx="40.8928" ry="40.8928"/>
<text text-anchor="middle" x="421" y="-110.3" font-family="Times New Roman,serif" font-size="14.00">10 cents</text>
</g>
<!-- 0 cents&#45;&gt;10 cents -->
<g id="edge14" class="edge"><title>0 cents&#45;&gt;10 cents</title>
<path fill="none" stroke="black" d="M165.56,-125.406C216.782,-123.11 311.566,-118.861 369.872,-116.247"/>
<polygon fill="black" stroke="black" points="370.129,-119.739 379.962,-115.795 369.815,-112.746 370.129,-119.739"/>
<text text-anchor="middle" x="273" y="-126.8" font-family="Times New Roman,serif" font-size="14.00">dime</text>
</g>
<!-- 5 cents&#45;&gt;10 cents -->
<g id="edge6" class="edge"><title>5 cents&#45;&gt;10 cents</title>
<path fill="none" stroke="black" d="M307.13,-68.388C326.771,-76.3252 351.967,-86.5071 373.568,-95.2365"/>
<polygon fill="black" stroke="black" points="372.31,-98.5028 382.893,-99.0045 374.932,-92.0127 372.31,-98.5028"/>
<text text-anchor="middle" x="345" y="-93.8" font-family="Times New Roman,serif" font-size="14.00">nickel</text>
</g>
<!-- 15 cents -->
<g id="node10" class="node"><title>15 cents</title>
<ellipse fill="none" stroke="black" cx="579" cy="-40" rx="40.8928" ry="40.8928"/>
<text text-anchor="middle" x="579" y="-36.3" font-family="Times New Roman,serif" font-size="14.00">15 cents</text>
</g>
<!-- 5 cents&#45;&gt;15 cents -->
<g id="edge16" class="edge"><title>5 cents&#45;&gt;15 cents</title>
<path fill="none" stroke="black" d="M309.812,-52.8736C330.351,-51.6789 356.621,-50.1929 380,-49 430.266,-46.435 487.729,-43.8631 527.756,-42.1294"/>
<polygon fill="black" stroke="black" points="527.957,-45.6241 537.796,-41.6963 527.655,-38.6306 527.957,-45.6241"/>
<text text-anchor="middle" x="421" y="-52.8" font-family="Times New Roman,serif" font-size="14.00">dime</text>
</g>
<!-- 10 cents&#45;&gt;15 cents -->
<g id="edge8" class="edge"><title>10 cents&#45;&gt;15 cents</title>
<path fill="none" stroke="black" d="M458.182,-96.8369C480.351,-86.3207 508.919,-72.7691 532.599,-61.5362"/>
<polygon fill="black" stroke="black" points="534.21,-64.6462 541.745,-57.198 531.21,-58.3217 534.21,-64.6462"/>
<text text-anchor="middle" x="500" y="-89.8" font-family="Times New Roman,serif" font-size="14.00">nickel</text>
</g>
<!-- 20 cents -->
<g id="node12" class="node"><title>20 cents</title>
<ellipse fill="none" stroke="black" cx="731" cy="-114" rx="40.8928" ry="40.8928"/>
<text text-anchor="middle" x="731" y="-110.3" font-family="Times New Roman,serif" font-size="14.00">20 cents</text>
</g>
<!-- 10 cents&#45;&gt;20 cents -->
<g id="edge18" class="edge"><title>10 cents&#45;&gt;20 cents</title>
<path fill="none" stroke="black" d="M461.95,-114C517.65,-114 618.635,-114 679.49,-114"/>
<polygon fill="black" stroke="black" points="679.632,-117.5 689.632,-114 679.632,-110.5 679.632,-117.5"/>
<text text-anchor="middle" x="579" y="-117.8" font-family="Times New Roman,serif" font-size="14.00">dime</text>
</g>
<!-- 15 cents&#45;&gt;25 cents -->
<g id="edge20" class="edge"><title>15 cents&#45;&gt;25 cents</title>
<path fill="none" stroke="black" d="M619.86,-36.5264C659.32,-34.3191 721.045,-34.2086 772,-49 796.697,-56.1691 821.777,-69.6527 842.102,-82.4889"/>
<polygon fill="black" stroke="black" points="840.21,-85.4335 850.507,-87.9301 844.015,-79.5574 840.21,-85.4335"/>
<text text-anchor="middle" x="731" y="-52.8" font-family="Times New Roman,serif" font-size="14.00">dime</text>
</g>
<!-- 15 cents&#45;&gt;20 cents -->
<g id="edge10" class="edge"><title>15 cents&#45;&gt;20 cents</title>
<path fill="none" stroke="black" d="M615.929,-57.7248C636.633,-67.9387 662.848,-80.8715 684.925,-91.7628"/>
<polygon fill="black" stroke="black" points="683.588,-95.0062 694.105,-96.2917 686.685,-88.7286 683.588,-95.0062"/>
<text text-anchor="middle" x="655" y="-87.8" font-family="Times New Roman,serif" font-size="14.00">nickel</text>
</g>
<!-- 20 cents&#45;&gt;25 cents -->
<g id="edge12" class="edge"><title>20 cents&#45;&gt;25 cents</title>
<path fill="none" stroke="black" d="M772.06,-114C790.274,-114 812.101,-114 831.756,-114"/>
<polygon fill="black" stroke="black" points="831.805,-117.5 841.805,-114 831.805,-110.5 831.805,-117.5"/>
<text text-anchor="middle" x="807" y="-117.8" font-family="Times New Roman,serif" font-size="14.00">nickel</text>
</g>
</g>
</svg>
